<svg width="177" height="193" viewBox="0 0 177 193" fill="none" xmlns="http://www.w3.org/2000/svg">
<g opacity="0.32">
<path d="M130.688 110.18H137.35C144.012 110.18 149.548 104.235 149.548 97.0601C149.548 88.1426 146.37 86.4001 141.143 84.5551L130.79 80.9676V110.18H130.688Z" fill="#7ACCC6"/>
<path d="M122.693 -33.5249C66.1132 -33.3199 20.2957 12.7026 20.5007 69.2826C20.7057 125.863 66.7282 171.68 123.308 171.475C179.888 171.27 225.706 125.248 225.501 68.6676C225.296 12.0876 179.273 -33.6274 122.693 -33.5249ZM146.166 70.0001C154.161 72.7676 164.923 78.7126 164.923 97.0601C164.923 112.845 152.521 125.555 137.351 125.555H130.688V131.5C130.688 135.703 127.203 139.188 123.001 139.188C118.798 139.188 115.313 135.703 115.313 131.5V125.555H111.623C94.8132 125.555 81.1807 111.41 81.1807 93.9851C81.1807 89.7826 84.6657 86.2976 88.8682 86.2976C93.0707 86.2976 96.5557 89.7826 96.5557 93.9851C96.5557 102.903 103.321 110.18 111.623 110.18H115.313V75.5351L99.8357 70.0001C91.8407 67.2326 81.0782 61.2876 81.0782 42.9401C81.0782 27.1551 93.4807 14.4451 108.651 14.4451H115.313V8.50011C115.313 4.29762 118.798 0.812618 123.001 0.812618C127.203 0.812618 130.688 4.29762 130.688 8.50011V14.4451H134.378C151.188 14.4451 164.821 28.5901 164.821 46.0151C164.821 50.2176 161.336 53.7026 157.133 53.7026C152.931 53.7026 149.446 50.2176 149.446 46.0151C149.446 37.0976 142.681 29.8201 134.378 29.8201H130.688V64.4651L146.166 70.0001Z" fill="#7ACCC6"/>
<path d="M96.5537 43.0424C96.5537 51.9599 99.7312 53.7024 104.959 55.5474L115.311 59.1349V29.8199H108.649C101.986 29.8199 96.5537 35.7649 96.5537 43.0424Z" fill="#7ACCC6"/>
</g>
</svg>
