<svg width="187" height="74" viewBox="0 0 187 74" fill="none" xmlns="http://www.w3.org/2000/svg">
<path d="M27.0905 35.7342L26.5446 37.242L25.7682 39.3826L25.4996 40.1238H6.50453V35.7342H27.0905Z" fill="#3D9992" stroke="#3D9992" stroke-width="2.24923"/>
<path d="M15.6067 28.9092H18.7638L5.07193 60.7074H1.9614L15.6067 28.9092Z" fill="#3D9992"/>
<path d="M35.5916 60.7074V57.7892H44.7898L24.8629 10.8057L22.4395 16.5002H19.2823L24.8629 3.31559L49.164 60.7074H35.5916Z" fill="#3D9992"/>
<path d="M20.7277 27.6166L5.92279 62H1.52588e-05L14.7547 27.6166H20.7277ZM51.1151 62H34.2991V56.4966H42.8376L24.8608 14.1111L23.2942 17.7928H17.3316L24.8628 0L51.1151 62ZM15.6067 28.9092L1.9614 60.7074H5.07193L18.7638 28.9092H15.6067ZM35.5916 60.7074H49.164L24.8629 3.31559L19.2823 16.5002H22.4395L24.8629 10.8057L44.7898 57.7892H35.5916V60.7074Z" fill="#3D9992"/>
<mask id="path-3-outside-1_3_2" maskUnits="userSpaceOnUse" x="47" y="30" width="48" height="32" fill="black">
<rect fill="white" x="47" y="30" width="48" height="32"/>
<path d="M61.272 46.032L67.8 60H66.216L59.496 45.6C59.56 45.568 59.832 45.44 60.312 45.216C60.824 44.96 61.176 44.784 61.368 44.688C61.56 44.56 61.88 44.352 62.328 44.064C62.776 43.776 63.112 43.504 63.336 43.248C63.56 42.96 63.8 42.64 64.056 42.288C64.344 41.904 64.552 41.488 64.68 41.04C64.808 40.56 64.872 40.048 64.872 39.504C64.872 37.488 63.912 36 61.992 35.04C60.072 34.08 57.688 33.6 54.84 33.6H51V60H49.56V32.16H54.84C58.616 32.16 61.464 32.816 63.384 34.128C65.336 35.44 66.312 37.232 66.312 39.504C66.312 40.976 65.816 42.288 64.824 43.44C63.832 44.56 62.648 45.424 61.272 46.032ZM92.31 32.16V33.6H82.23V60H80.79V33.6H70.71V32.16H92.31Z"/>
</mask>
<path d="M61.272 46.032L67.8 60H66.216L59.496 45.6C59.56 45.568 59.832 45.44 60.312 45.216C60.824 44.96 61.176 44.784 61.368 44.688C61.56 44.56 61.88 44.352 62.328 44.064C62.776 43.776 63.112 43.504 63.336 43.248C63.56 42.96 63.8 42.64 64.056 42.288C64.344 41.904 64.552 41.488 64.68 41.04C64.808 40.56 64.872 40.048 64.872 39.504C64.872 37.488 63.912 36 61.992 35.04C60.072 34.08 57.688 33.6 54.84 33.6H51V60H49.56V32.16H54.84C58.616 32.16 61.464 32.816 63.384 34.128C65.336 35.44 66.312 37.232 66.312 39.504C66.312 40.976 65.816 42.288 64.824 43.44C63.832 44.56 62.648 45.424 61.272 46.032ZM92.31 32.16V33.6H82.23V60H80.79V33.6H70.71V32.16H92.31Z" fill="#3D9992"/>
<path d="M61.272 46.032L60.4637 44.2026L58.5952 45.0282L59.4601 46.8788L61.272 46.032ZM67.8 60V62H70.9424L69.6119 59.1532L67.8 60ZM66.216 60L64.4036 60.8458L64.9423 62H66.216V60ZM59.496 45.6L58.6016 43.8111L56.8604 44.6817L57.6836 46.4458L59.496 45.6ZM60.312 45.216L61.1578 47.0284L61.1823 47.0169L61.2064 47.0049L60.312 45.216ZM61.368 44.688L62.2624 46.4769L62.3738 46.4212L62.4774 46.3521L61.368 44.688ZM62.328 44.064L63.4095 45.7464H63.4095L62.328 44.064ZM63.336 43.248L64.8412 44.565L64.8792 44.5215L64.9147 44.4759L63.336 43.248ZM64.056 42.288L62.456 41.088L62.4472 41.0998L62.4385 41.1117L64.056 42.288ZM64.68 41.04L66.603 41.5894L66.6079 41.5724L66.6125 41.5553L64.68 41.04ZM61.992 35.04L62.8864 33.2511V33.2511L61.992 35.04ZM51 33.6V31.6H49V33.6H51ZM51 60V62H53V60H51ZM49.56 60H47.56V62H49.56V60ZM49.56 32.16V30.16H47.56V32.16H49.56ZM63.384 34.128L62.2556 35.7793L62.262 35.7836L62.2683 35.7879L63.384 34.128ZM64.824 43.44L66.3212 44.7661L66.3304 44.7556L66.3395 44.745L64.824 43.44ZM61.272 46.032L59.4601 46.8788L65.9881 60.8468L67.8 60L69.6119 59.1532L63.0839 45.1852L61.272 46.032ZM67.8 60V58H66.216V60V62H67.8V60ZM66.216 60L68.0284 59.1542L61.3084 44.7542L59.496 45.6L57.6836 46.4458L64.4036 60.8458L66.216 60ZM59.496 45.6L60.3904 47.3888C60.387 47.3905 60.3999 47.3842 60.4429 47.3637C60.481 47.3456 60.5329 47.321 60.5996 47.2896C60.7327 47.227 60.9185 47.14 61.1578 47.0284L60.312 45.216L59.4662 43.4036C59.0043 43.6192 58.6969 43.7635 58.6016 43.8111L59.496 45.6ZM60.312 45.216L61.2064 47.0049C61.7184 46.7489 62.0704 46.5729 62.2624 46.4769L61.368 44.688L60.4736 42.8991C60.2816 42.9951 59.9296 43.1711 59.4176 43.4271L60.312 45.216ZM61.368 44.688L62.4774 46.3521C62.6543 46.2342 62.962 46.034 63.4095 45.7464L62.328 44.064L61.2465 42.3816C60.798 42.67 60.4657 42.8858 60.2586 43.0239L61.368 44.688ZM62.328 44.064L63.4095 45.7464C63.9369 45.4073 64.4446 45.0182 64.8412 44.565L63.336 43.248L61.8308 41.931C61.7794 41.9898 61.6151 42.1447 61.2465 42.3816L62.328 44.064ZM63.336 43.248L64.9147 44.4759C65.1541 44.1681 65.4072 43.8305 65.6735 43.4643L64.056 42.288L62.4385 41.1117C62.1929 41.4495 61.9659 41.7519 61.7573 42.0201L63.336 43.248ZM64.056 42.288L65.656 43.488C66.086 42.9147 66.4059 42.2793 66.603 41.5894L64.68 41.04L62.757 40.4906C62.6981 40.6967 62.602 40.8933 62.456 41.088L64.056 42.288ZM64.68 41.04L66.6125 41.5553C66.7893 40.8921 66.872 40.2056 66.872 39.504H64.872H62.872C62.872 39.8904 62.8267 40.2279 62.7475 40.5247L64.68 41.04ZM64.872 39.504H66.872C66.872 38.1661 66.5489 36.902 65.8326 35.7917C65.1209 34.6887 64.0989 33.8574 62.8864 33.2511L61.992 35.04L61.0976 36.8289C61.8051 37.1826 62.2231 37.5753 62.4714 37.9603C62.7151 38.338 62.872 38.8259 62.872 39.504H64.872ZM61.992 35.04L62.8864 33.2511C60.6132 32.1145 57.9013 31.6 54.84 31.6V33.6V35.6C57.4747 35.6 59.5308 36.0455 61.0976 36.8289L61.992 35.04ZM54.84 33.6V31.6H51V33.6V35.6H54.84V33.6ZM51 33.6H49V60H51H53V33.6H51ZM51 60V58H49.56V60V62H51V60ZM49.56 60H51.56V32.16H49.56H47.56V60H49.56ZM49.56 32.16V34.16H54.84V32.16V30.16H49.56V32.16ZM54.84 32.16V34.16C58.4421 34.16 60.8169 34.7961 62.2556 35.7793L63.384 34.128L64.5124 32.4767C62.1111 30.8358 58.7899 30.16 54.84 30.16V32.16ZM63.384 34.128L62.2683 35.7879C63.6909 36.744 64.312 37.9256 64.312 39.504H66.312H68.312C68.312 36.5384 66.9812 34.136 64.4997 32.4681L63.384 34.128ZM66.312 39.504H64.312C64.312 40.4801 63.9991 41.3329 63.3085 42.135L64.824 43.44L66.3395 44.745C67.6329 43.2431 68.312 41.4719 68.312 39.504H66.312ZM64.824 43.44L63.3268 42.1139C62.5266 43.0174 61.578 43.7102 60.4637 44.2026L61.272 46.032L62.0803 47.8614C63.718 47.1378 65.1374 46.1026 66.3212 44.7661L64.824 43.44ZM92.31 32.16H94.31V30.16H92.31V32.16ZM92.31 33.6V35.6H94.31V33.6H92.31ZM82.23 33.6V31.6H80.23V33.6H82.23ZM82.23 60V62H84.23V60H82.23ZM80.79 60H78.79V62H80.79V60ZM80.79 33.6H82.79V31.6H80.79V33.6ZM70.71 33.6H68.71V35.6H70.71V33.6ZM70.71 32.16V30.16H68.71V32.16H70.71ZM92.31 32.16H90.31V33.6H92.31H94.31V32.16H92.31ZM92.31 33.6V31.6H82.23V33.6V35.6H92.31V33.6ZM82.23 33.6H80.23V60H82.23H84.23V33.6H82.23ZM82.23 60V58H80.79V60V62H82.23V60ZM80.79 60H82.79V33.6H80.79H78.79V60H80.79ZM80.79 33.6V31.6H70.71V33.6V35.6H80.79V33.6ZM70.71 33.6H72.71V32.16H70.71H68.71V33.6H70.71ZM70.71 32.16V34.16H92.31V32.16V30.16H70.71V32.16Z" fill="#3D9992" mask="url(#path-3-outside-1_3_2)"/>
<path d="M93.4432 62V27.0909H106.807C109.33 27.0909 111.426 27.4886 113.097 28.2841C114.778 29.0682 116.034 30.142 116.864 31.5057C117.705 32.8693 118.125 34.4148 118.125 36.142C118.125 37.5625 117.852 38.7784 117.307 39.7898C116.761 40.7898 116.028 41.6023 115.108 42.2273C114.188 42.8523 113.159 43.3011 112.023 43.5739V43.9148C113.261 43.983 114.449 44.3636 115.585 45.0568C116.733 45.7386 117.67 46.7045 118.398 47.9545C119.125 49.2045 119.489 50.7159 119.489 52.4886C119.489 54.2955 119.051 55.9205 118.176 57.3636C117.301 58.7955 115.983 59.9261 114.222 60.7557C112.46 61.5852 110.244 62 107.574 62H93.4432ZM99.767 56.7159H106.568C108.864 56.7159 110.517 56.2784 111.528 55.4034C112.551 54.517 113.062 53.3807 113.062 51.9943C113.062 50.9602 112.807 50.0284 112.295 49.1989C111.784 48.358 111.057 47.6989 110.114 47.2216C109.17 46.733 108.045 46.4886 106.739 46.4886H99.767V56.7159ZM99.767 41.9375H106.023C107.114 41.9375 108.097 41.7386 108.972 41.3409C109.847 40.9318 110.534 40.358 111.034 39.6193C111.545 38.8693 111.801 37.983 111.801 36.9602C111.801 35.608 111.324 34.4943 110.369 33.6193C109.426 32.7443 108.023 32.3068 106.159 32.3068H99.767V41.9375ZM126.491 62.5284C124.832 62.5284 123.338 62.233 122.008 61.642C120.69 61.0398 119.645 60.1534 118.872 58.983C118.111 57.8125 117.73 56.3693 117.73 54.6534C117.73 53.1761 118.003 51.9545 118.548 50.9886C119.094 50.0227 119.838 49.25 120.781 48.6705C121.724 48.0909 122.787 47.6534 123.969 47.358C125.162 47.0511 126.395 46.8295 127.668 46.6932C129.202 46.5341 130.446 46.392 131.401 46.267C132.355 46.1307 133.048 45.9261 133.48 45.6534C133.923 45.3693 134.145 44.9318 134.145 44.3409V44.2386C134.145 42.9545 133.764 41.9602 133.003 41.2557C132.241 40.5511 131.145 40.1989 129.713 40.1989C128.202 40.1989 127.003 40.5284 126.116 41.1875C125.241 41.8466 124.651 42.625 124.344 43.5227L118.582 42.7045C119.037 41.1136 119.787 39.7841 120.832 38.7159C121.878 37.6364 123.156 36.8295 124.668 36.2955C126.179 35.75 127.849 35.4773 129.679 35.4773C130.94 35.4773 132.196 35.625 133.446 35.9205C134.696 36.2159 135.838 36.7045 136.872 37.3864C137.906 38.0568 138.736 38.9716 139.361 40.1307C139.997 41.2898 140.315 42.7386 140.315 44.4773V62H134.383V58.4034H134.179C133.804 59.1307 133.276 59.8125 132.594 60.4489C131.923 61.0739 131.077 61.5795 130.054 61.9659C129.043 62.3409 127.855 62.5284 126.491 62.5284ZM128.094 57.9943C129.332 57.9943 130.406 57.75 131.315 57.2614C132.224 56.7614 132.923 56.1023 133.412 55.2841C133.912 54.4659 134.162 53.5739 134.162 52.608V49.5227C133.969 49.6818 133.639 49.8295 133.173 49.9659C132.719 50.1023 132.207 50.2216 131.639 50.3239C131.071 50.4261 130.508 50.517 129.952 50.5966C129.395 50.6761 128.912 50.7443 128.503 50.8011C127.582 50.9261 126.758 51.1307 126.031 51.4148C125.304 51.6989 124.73 52.0966 124.31 52.608C123.889 53.108 123.679 53.7557 123.679 54.5511C123.679 55.6875 124.094 56.5455 124.923 57.125C125.753 57.7045 126.81 57.9943 128.094 57.9943ZM152.18 62.5114C149.567 62.5114 147.322 61.9375 145.447 60.7898C143.584 59.642 142.146 58.0568 141.135 56.0341C140.135 54 139.635 51.6591 139.635 49.0114C139.635 46.3523 140.146 44.0057 141.169 41.9716C142.192 39.9261 143.635 38.3352 145.498 37.1989C147.373 36.0511 149.589 35.4773 152.146 35.4773C154.271 35.4773 156.152 35.8693 157.788 36.6534C159.436 37.4261 160.748 38.5227 161.726 39.9432C162.703 41.3523 163.26 43 163.396 44.8864H157.498C157.26 43.625 156.692 42.5739 155.794 41.733C154.908 40.8807 153.72 40.4545 152.231 40.4545C150.97 40.4545 149.862 40.7955 148.908 41.4773C147.953 42.1477 147.209 43.1136 146.675 44.375C146.152 45.6364 145.891 47.1477 145.891 48.9091C145.891 50.6932 146.152 52.2273 146.675 53.5114C147.197 54.7841 147.93 55.767 148.873 56.4602C149.828 57.142 150.947 57.483 152.231 57.483C153.141 57.483 153.953 57.3125 154.669 56.9716C155.396 56.6193 156.004 56.1136 156.493 55.4545C156.981 54.7955 157.317 53.9943 157.498 53.0511H163.396C163.248 54.9034 162.703 56.5455 161.76 57.9773C160.817 59.3977 159.533 60.5114 157.908 61.3182C156.283 62.1136 154.373 62.5114 152.18 62.5114ZM168.328 53.7841L168.311 46.3352H169.3L178.709 35.8182H185.919L174.345 48.7045H173.067L168.328 53.7841ZM162.703 62V27.0909H168.873V62H162.703ZM179.135 62L170.612 50.0852L174.771 45.7386L186.515 62H179.135Z" fill="#3D9992"/>
</svg>
